<?xml version="1.0" encoding="UTF-8" standalone="no"?> <svg id="Layer_1" data-name="Layer 1" xmlns="http://www.w3.org/2000/svg" viewBox="0 0 128 128"><defs><style>.cls-1{fill:#2d3e50;}</style></defs><title>n</title><path class="cls-1" d="M79.05812,59.49982a.0628.0628,0,0,1,.01786-.0119,43.81607,43.81607,0,0,0,21.346-37.65016v-10.676h3.39V1.9442H24.188v9.21758h3.39v10.676A43.81607,43.81607,0,0,0,48.924,59.48792a.0628.0628,0,0,1,.01786.0119,3.416,3.416,0,0,1,1.58635,2.92571v3.15191a3.416,3.416,0,0,1-1.58635,2.92569.12668.12668,0,0,1-.02084.0149A43.81119,43.81119,0,0,0,27.578,106.1652v10.676h-3.39v9.21462h79.624v-9.21462h-3.39v-10.676A43.81119,43.81119,0,0,0,79.079,68.518a.12668.12668,0,0,1-.02084-.0149,3.416,3.416,0,0,1-1.58635-2.92569V62.42553A3.416,3.416,0,0,1,79.05812,59.49982Zm-.51489,37.12337c4.91387,2.07149,8.46459,3.56858,9.22056,8.155l.59824,3.63109H39.638l.59824-3.63109c.756-4.58647,4.30669-6.08355,9.22056-8.155a71.18008,71.18008,0,0,0,9.42593-4.60732l.09524-.05655a18.463,18.463,0,0,0,2.90785-2.22626L64,87.74805l2.1142,1.985a18.463,18.463,0,0,0,2.90785,2.22626l.09524.05655A71.18008,71.18008,0,0,0,78.54323,96.62319ZM64,50.783a4.37191,4.37191,0,1,1-4.33454,4.37323A4.37482,4.37482,0,0,1,64,50.783ZM64,73.1952a2.97461,2.97461,0,1,1,2.93864-2.97439A2.97636,2.97636,0,0,1,64,73.1952Zm3.29282-32.199a.18124.18124,0,0,1-.02976.02084A19.08486,19.08486,0,0,0,64,43.58633,19.085,19.085,0,0,0,60.73693,41.017a.18124.18124,0,0,1-.02976-.02084c-8.34255-5.021-14.50349-12.24151-16.66131-19.12867a1.765,1.765,0,0,1,1.69649-2.27686H82.25764a1.765,1.765,0,0,1,1.69649,2.27686C81.79632,28.75468,75.63538,35.97518,67.29283,40.99619Z"/></svg>