<svg xmlns="http://www.w3.org/2000/svg" xmlns:xlink="http://www.w3.org/1999/xlink" version="1.1" width="256" height="256" viewBox="0 0 256 256" xml:space="preserve">
<desc>Created with Fabric.js 1.7.22</desc>
<defs>
</defs>
<g transform="translate(128 128) scale(0.72 0.72)" style="">
	<g style="stroke: none; stroke-width: 0; stroke-dasharray: none; stroke-linecap: butt; stroke-linejoin: miter; stroke-miterlimit: 10; fill: none; fill-rule: nonzero; opacity: 1;" transform="translate(-175.05 -175.05000000000004) scale(3.89 3.89)" >
	<path d="M 45 0 C 27.395 0 13.123 14.272 13.123 31.877 c 0 7.86 2.858 15.043 7.573 20.6 L 45 81.101 l 24.304 -28.624 c 4.716 -5.558 7.573 -12.741 7.573 -20.6 C 76.877 14.272 62.605 0 45 0 z M 45 43.889 c -7.24 0 -13.11 -5.869 -13.11 -13.11 c 0 -7.24 5.869 -13.11 13.11 -13.11 s 13.11 5.869 13.11 13.11 C 58.11 38.02 52.24 43.889 45 43.889 z" style="stroke: none; stroke-width: 1; stroke-dasharray: none; stroke-linecap: butt; stroke-linejoin: miter; stroke-miterlimit: 10; fill: rgb(0,0,0); fill-rule: nonzero; opacity: 1;" transform=" matrix(1 0 0 1 0 0) " stroke-linecap="round" />
	<polygon points="64.35,73.94 56.44,73.94 45,83.63 33.4,73.94 32.59,73.94 25.64,73.94 15.38,90 74.63,90 " style="stroke: none; stroke-width: 1; stroke-dasharray: none; stroke-linecap: butt; stroke-linejoin: miter; stroke-miterlimit: 10; fill: rgb(0,0,0); fill-rule: nonzero; opacity: 1;" transform="  matrix(1 0 0 1 0 0) "/>
</g>
</g>
</svg>